<mxfile host="app.diagrams.net" agent="Mozilla/5.0 (Windows NT 10.0; Win64; x64) AppleWebKit/537.36 (KHTML, like Gecko) Chrome/137.0.0.0 Safari/537.36" version="27.1.4">
  <diagram id="R2lEEEUBdFMjLlhIrx00" name="Page-1">
    <mxGraphModel dx="2403" dy="3187" grid="1" gridSize="10" guides="1" tooltips="1" connect="1" arrows="1" fold="1" page="1" pageScale="1" pageWidth="500" pageHeight="300" math="0" shadow="0" extFonts="Permanent Marker^https://fonts.googleapis.com/css?family=Permanent+Marker">
      <root>
        <mxCell id="0" />
        <mxCell id="1" parent="0" />
        <mxCell id="120" style="edgeStyle=none;html=1;endArrow=none;endFill=0;fontSize=11;fontColor=#000000;" parent="1" source="112" target="174" edge="1">
          <mxGeometry relative="1" as="geometry">
            <mxPoint x="-1215.1099794394931" y="-2766.015862460718" as="targetPoint" />
          </mxGeometry>
        </mxCell>
        <mxCell id="112" value="&lt;font&gt;Usuario&lt;span style=&quot;background-color: transparent;&quot;&gt;&amp;nbsp;Autenticado&lt;/span&gt;&lt;/font&gt;" style="shape=umlActor;verticalLabelPosition=bottom;verticalAlign=top;html=1;outlineConnect=0;fontSize=11;fontColor=#000000;" parent="1" vertex="1">
          <mxGeometry x="-1459.9999999999998" y="-2591.02" width="30" height="60" as="geometry" />
        </mxCell>
        <mxCell id="174" value="&lt;div&gt;&lt;font&gt;Consultar panel global&lt;/font&gt;&lt;/div&gt;" style="ellipse;whiteSpace=wrap;html=1;fontSize=11;fontColor=#000000;" parent="1" vertex="1">
          <mxGeometry x="-1375" y="-2586.02" width="130" height="50" as="geometry" />
        </mxCell>
        <mxCell id="175" value="Consultar métricas globales" style="ellipse;whiteSpace=wrap;html=1;fontSize=11;fontColor=#000000;" parent="1" vertex="1">
          <mxGeometry x="-1370" y="-2490" width="120" height="50" as="geometry" />
        </mxCell>
        <mxCell id="178" value="&lt;span style=&quot;&quot;&gt;Revisar órdenes recientes&lt;br&gt;---------------------------------------------------&lt;/span&gt;&lt;div&gt;&lt;span style=&quot;&quot;&gt;&lt;b&gt;Extension Points&lt;/b&gt;&lt;/span&gt;&lt;/div&gt;&lt;div&gt;&lt;span style=&quot;&quot;&gt;Configurar estrategia&lt;/span&gt;&lt;/div&gt;" style="ellipse;whiteSpace=wrap;html=1;fontSize=11;fontColor=#000000;" parent="1" vertex="1">
          <mxGeometry x="-1230" y="-2520" width="190" height="70" as="geometry" />
        </mxCell>
        <mxCell id="181" value="Filtrar por modo simulado o real" style="ellipse;whiteSpace=wrap;html=1;fontSize=11;fontColor=#000000;" parent="1" vertex="1">
          <mxGeometry x="-1359.9999999999998" y="-2670" width="100" height="50" as="geometry" />
        </mxCell>
        <mxCell id="182" value="" style="endArrow=classic;html=1;dashed=1;fontSize=11;fontColor=#000000;" parent="1" source="174" target="181" edge="1">
          <mxGeometry width="50" height="50" relative="1" as="geometry">
            <mxPoint x="-1097" y="-2531.02" as="sourcePoint" />
            <mxPoint x="-1100" y="-2491.02" as="targetPoint" />
          </mxGeometry>
        </mxCell>
        <mxCell id="183" value="&amp;lt;&amp;lt;Include&amp;gt;&amp;gt;" style="edgeLabel;html=1;align=center;verticalAlign=middle;resizable=0;points=[];fontSize=11;fontColor=#000000;" parent="182" vertex="1" connectable="0">
          <mxGeometry x="-0.129" y="1" relative="1" as="geometry">
            <mxPoint x="-38" y="-9" as="offset" />
          </mxGeometry>
        </mxCell>
        <mxCell id="184" value="" style="endArrow=classic;html=1;dashed=1;fontSize=11;fontColor=#000000;" parent="1" source="174" target="175" edge="1">
          <mxGeometry width="50" height="50" relative="1" as="geometry">
            <mxPoint x="-1148" y="-2440.02" as="sourcePoint" />
            <mxPoint x="-1206" y="-2513.02" as="targetPoint" />
          </mxGeometry>
        </mxCell>
        <mxCell id="185" value="&amp;lt;&amp;lt;Include&amp;gt;&amp;gt;" style="edgeLabel;html=1;align=center;verticalAlign=middle;resizable=0;points=[];fontSize=11;fontColor=#000000;" parent="184" vertex="1" connectable="0">
          <mxGeometry x="-0.129" y="1" relative="1" as="geometry">
            <mxPoint x="-41" y="6" as="offset" />
          </mxGeometry>
        </mxCell>
        <mxCell id="186" value="" style="endArrow=classic;html=1;dashed=1;fontSize=11;fontColor=#000000;" parent="1" source="174" target="178" edge="1">
          <mxGeometry width="50" height="50" relative="1" as="geometry">
            <mxPoint x="-1208" y="-2815.02" as="sourcePoint" />
            <mxPoint x="-1266" y="-2888.02" as="targetPoint" />
          </mxGeometry>
        </mxCell>
        <mxCell id="187" value="&amp;lt;&amp;lt;Include&amp;gt;&amp;gt;" style="edgeLabel;html=1;align=center;verticalAlign=middle;resizable=0;points=[];fontSize=11;fontColor=#000000;" parent="186" vertex="1" connectable="0">
          <mxGeometry x="-0.129" y="1" relative="1" as="geometry">
            <mxPoint x="-24" y="20" as="offset" />
          </mxGeometry>
        </mxCell>
        <mxCell id="191" value="Configurar estrategia" style="ellipse;whiteSpace=wrap;html=1;fontSize=11;fontColor=#000000;" parent="1" vertex="1">
          <mxGeometry x="-1195" y="-2642.02" width="120" height="51" as="geometry" />
        </mxCell>
        <mxCell id="195" value="" style="endArrow=classic;html=1;dashed=1;fontSize=11;fontColor=#000000;" parent="1" source="191" target="178" edge="1">
          <mxGeometry width="50" height="50" relative="1" as="geometry">
            <mxPoint x="-994.9951146595572" y="-2846.0233188785405" as="sourcePoint" />
            <mxPoint x="-1001.546526541111" y="-2866.4188849315537" as="targetPoint" />
          </mxGeometry>
        </mxCell>
        <mxCell id="196" value="&amp;lt;&amp;lt;Extend&amp;gt;&amp;gt;" style="edgeLabel;html=1;align=center;verticalAlign=middle;resizable=0;points=[];fontSize=11;fontColor=#000000;" parent="195" vertex="1" connectable="0">
          <mxGeometry x="-0.129" y="1" relative="1" as="geometry">
            <mxPoint x="-36" y="-1" as="offset" />
          </mxGeometry>
        </mxCell>
      </root>
    </mxGraphModel>
  </diagram>
</mxfile>
